<svg width="16" height="16" viewBox="0 0 16 16" fill="none" xmlns="http://www.w3.org/2000/svg">
<path d="M13 1C13 0.447715 12.5523 0 12 0H4C3.44772 0 3 0.447715 3 1V1C3 1.55228 3.44772 2 4 2H12C12.5523 2 13 1.55228 13 1V1Z" fill="#E8E9EB"/>
<path d="M2 5C2 4.44772 2.44772 4 3 4H13C13.5523 4 14 4.44772 14 5V5C14 5.55228 13.5523 6 13 6H3C2.44772 6 2 5.55228 2 5V5Z" fill="#E8E9EB"/>
<path d="M1 10C1 8.89543 1.89543 8 3 8H13C14.1046 8 15 8.89543 15 10V13C15 14.1046 14.1046 15 13 15H3C1.89543 15 1 14.1046 1 13V10Z" fill="#E8E9EB"/>
</svg>
