<svg width="16" height="16" viewBox="0 0 16 16" fill="none" xmlns="http://www.w3.org/2000/svg">
<path d="M5.33333 4.00044L14 4.00092M5.33333 8.00046L14 8.00099M5.33333 12.0005L14 12.001M2.33333 3.99999H2.34M2.33333 7.99999H2.34M2.33333 12H2.34M2.66667 3.99999C2.66667 4.18408 2.51743 4.33332 2.33333 4.33332C2.14924 4.33332 2 4.18408 2 3.99999C2 3.8159 2.14924 3.66666 2.33333 3.66666C2.51743 3.66666 2.66667 3.8159 2.66667 3.99999ZM2.66667 7.99999C2.66667 8.18406 2.51743 8.33332 2.33333 8.33332C2.14924 8.33332 2 8.18406 2 7.99999C2 7.81592 2.14924 7.66666 2.33333 7.66666C2.51743 7.66666 2.66667 7.81592 2.66667 7.99999ZM2.66667 12C2.66667 12.1841 2.51743 12.3333 2.33333 12.3333C2.14924 12.3333 2 12.1841 2 12C2 11.8159 2.14924 11.6667 2.33333 11.6667C2.51743 11.6667 2.66667 11.8159 2.66667 12Z" stroke="#E8E9EB" stroke-width="1.5" stroke-linecap="round" stroke-linejoin="round"/>
</svg>
