<svg width="54" height="54" viewBox="0 0 54 54" fill="none" xmlns="http://www.w3.org/2000/svg">
<path d="M53.6667 45.8452C53.6667 50.1649 50.165 53.6667 45.8453 53.6667V53.6667C42.5399 53.6667 39.5913 51.5887 38.4796 48.4759L34.1301 36.2974C33.8237 35.4395 33.365 34.6439 32.776 33.949V33.949C29.7521 30.3807 24.2481 30.3807 21.2241 33.949V33.949C20.6351 34.6439 20.1764 35.4395 19.87 36.2974L15.5206 48.4759C14.4089 51.5887 11.4603 53.6667 8.15484 53.6667V53.6667C3.83518 53.6667 0.333414 50.1649 0.333414 45.8452V27L0.333414 8.15865C0.333414 3.83684 3.83693 0.33333 8.15873 0.33333V0.33333C11.4626 0.33333 14.4104 2.40826 15.5252 5.51835L19.8757 17.6564C20.1784 18.501 20.6289 19.285 21.2061 19.9718V19.9718C24.2304 23.5708 29.7697 23.5708 32.7941 19.9718V19.9718C33.3713 19.285 33.8217 18.501 34.1244 17.6564L38.475 5.51835C39.5897 2.40825 42.5376 0.33333 45.8414 0.33333V0.33333C50.1632 0.33333 53.6667 3.83685 53.6667 8.15865L53.6667 45.8452Z" fill="#313638"/>
</svg>
