<svg width="24" height="24" viewBox="0 0 24 24" fill="none" xmlns="http://www.w3.org/2000/svg">
<path fill-rule="evenodd" clip-rule="evenodd" d="M3 10.4167C3 7.21907 3 5.62028 3.37752 5.08241C3.75503 4.54454 5.25829 4.02997 8.26483 3.00082L8.26491 3.00079L8.83772 2.80472L8.83795 2.80464C10.4051 2.26821 11.1886 2 12 2C12.8114 2 13.5949 2.26821 15.162 2.80462L15.1623 2.80472L15.7351 3.00079L15.7352 3.00083L15.7352 3.00083C18.7417 4.02997 20.245 4.54455 20.6225 5.08241C21 5.62028 21 7.21907 21 10.4167V11.9914C21 17.6294 16.761 20.3655 14.1014 21.5273L14.1012 21.5274L14.1011 21.5274C13.3799 21.8424 13.0192 22 12 22C10.9808 22 10.6201 21.8424 9.89885 21.5274L9.89856 21.5273C7.23896 20.3655 3 17.6294 3 11.9914V10.4167ZM14 9C14 10.1046 13.1046 11 12 11C10.8954 11 10 10.1046 10 9C10 7.89543 10.8954 7 12 7C13.1046 7 14 7.89543 14 9ZM16 15C16 16.1046 16 17 12 17C8 17 8 16.1046 8 15C8 13.8954 9.79086 13 12 13C14.2091 13 16 13.8954 16 15Z" fill="#313638"/>
</svg>
