<svg width="16" height="16" viewBox="0 0 16 16" fill="none" xmlns="http://www.w3.org/2000/svg">
<path fill-rule="evenodd" clip-rule="evenodd" d="M9.5192 1.43484C9.27233 1.33334 8.95933 1.33334 8.33333 1.33334C7.70733 1.33334 7.39433 1.33334 7.14746 1.43484C6.81826 1.57016 6.55672 1.82973 6.42037 2.15643C6.35812 2.30557 6.33376 2.47901 6.32423 2.732C6.31022 3.1038 6.1181 3.44794 5.79344 3.63396C5.46878 3.81998 5.07242 3.81304 4.74099 3.63918C4.51545 3.52088 4.35193 3.45509 4.19066 3.43402C3.83739 3.38786 3.48012 3.48287 3.19744 3.69814C2.98543 3.8596 2.82893 4.12861 2.51593 4.66663C2.20294 5.20466 2.04645 5.47366 2.01157 5.73662C1.96505 6.08721 2.06079 6.44178 2.2777 6.72234C2.37671 6.85041 2.51585 6.95801 2.7318 7.09268C3.04927 7.29068 3.25355 7.62794 3.25353 8.00001C3.25351 8.37208 3.04924 8.70928 2.7318 8.90721C2.51581 9.04194 2.37665 9.14961 2.27763 9.27768C2.06072 9.55821 1.96499 9.91274 2.0115 10.2633C2.04638 10.5263 2.20288 10.7953 2.51586 11.3333C2.82886 11.8713 2.98536 12.1404 3.19737 12.3018C3.48005 12.5171 3.83733 12.6121 4.19059 12.5659C4.35185 12.5449 4.51536 12.4791 4.74088 12.3608C5.07234 12.1869 5.46873 12.18 5.79341 12.366C6.11809 12.5521 6.31022 12.8962 6.32423 13.2681C6.33376 13.521 6.35812 13.6945 6.42037 13.8436C6.55672 14.1703 6.81826 14.4299 7.14746 14.5652C7.39433 14.6667 7.70733 14.6667 8.33333 14.6667C8.95933 14.6667 9.27233 14.6667 9.5192 14.5652C9.8484 14.4299 10.1099 14.1703 10.2463 13.8436C10.3085 13.6945 10.3329 13.521 10.3425 13.268C10.3565 12.8962 10.5485 12.5521 10.8732 12.366C11.1979 12.1799 11.5943 12.1869 11.9257 12.3608C12.1513 12.4791 12.3147 12.5448 12.476 12.5659C12.8293 12.6121 13.1865 12.5171 13.4692 12.3018C13.6813 12.1403 13.8377 11.8713 14.1507 11.3333C14.4637 10.7953 14.6202 10.5263 14.6551 10.2633C14.7016 9.91274 14.6059 9.55814 14.389 9.27761C14.2899 9.14954 14.1508 9.04188 13.9348 8.90721C13.6174 8.70928 13.4131 8.37201 13.4131 7.99994C13.4131 7.62788 13.6174 7.29074 13.9348 7.09281C14.1509 6.95808 14.29 6.85048 14.3891 6.72234C14.6059 6.44183 14.7017 6.08726 14.6552 5.73666C14.6203 5.47371 14.4638 5.2047 14.1508 4.66668C13.8378 4.12866 13.6813 3.85964 13.4693 3.69819C13.1866 3.48292 12.8293 3.38791 12.4761 3.43407C12.3148 3.45514 12.1513 3.52092 11.9258 3.63921C11.5943 3.81307 11.1979 3.82002 10.8733 3.63398C10.5486 3.44795 10.3565 3.10378 10.3424 2.73197C10.3329 2.479 10.3085 2.30556 10.2463 2.15643C10.1099 1.82973 9.8484 1.57016 9.5192 1.43484ZM8.33333 11C9.44633 11 11.3485 9.10461 11.3485 8.00001C11.3485 6.89541 9.44633 5.00001 8.33333 5.00001C7.22033 5.00001 5.31811 6.89541 5.31811 8.00001C5.31811 9.10461 7.22033 11 8.33333 11Z" fill="#E8E9EB"/>
</svg>
