<svg width="20" height="18" viewBox="0 0 20 18" fill="none" xmlns="http://www.w3.org/2000/svg">
<path fill-rule="evenodd" clip-rule="evenodd" d="M6.10624 14.9619C3.29816 12.7984 0 10.2572 0 5.85219C0 0.98925 5.50016 -2.45945 10 2.21572C14.4998 -2.45945 20 0.98925 20 5.85219C20 10.2572 16.7018 12.7984 13.8938 14.9619C13.6019 15.1868 13.3153 15.4076 13.0383 15.626C12 16.4445 11 17.2151 10 17.2151C9 17.2151 8 16.4445 6.96173 15.626C6.6847 15.4076 6.39811 15.1868 6.10624 14.9619ZM11.8845 11.2667C12.3165 11.2667 12.6667 10.9165 12.6667 10.4845V6.71586C12.6667 6.28368 12.3163 5.93333 11.8842 5.93333C11.5538 5.93333 11.259 6.14082 11.1475 6.45183L10.7125 7.66564C10.6822 7.75009 10.6371 7.82849 10.5794 7.89718C10.277 8.25707 9.72305 8.25707 9.42062 7.89718C9.3629 7.82849 9.31786 7.75009 9.28759 7.66564L8.85253 6.45183C8.74106 6.14082 8.44627 5.93333 8.11589 5.93333C7.68371 5.93333 7.33335 6.28368 7.33335 6.71586V8.6V10.4845C7.33335 10.9165 7.68353 11.2667 8.1155 11.2667C8.44604 11.2667 8.7409 11.0589 8.85207 10.7476L9.28702 9.52974C9.31766 9.44395 9.36353 9.36439 9.42242 9.29489C9.72482 8.93806 10.2752 8.93806 10.5776 9.29489C10.6365 9.36439 10.6824 9.44395 10.713 9.52974L11.148 10.7476C11.2591 11.0589 11.554 11.2667 11.8845 11.2667Z" fill="#E8E9EB"/>
</svg>
