<svg width="16" height="16" viewBox="0 0 16 16" fill="none" xmlns="http://www.w3.org/2000/svg">
<g clip-path="url(#clip0_62_1059)">
<path d="M4.77383 7.31492C5.63023 6.30628 6.90767 5.66666 8.33333 5.66666C10.9107 5.66666 13 7.75599 13 10.3333C13 10.8856 13.4477 11.3333 14 11.3333C14.5523 11.3333 15 10.8856 15 10.3333C15 6.65142 12.0152 3.66666 8.33333 3.66666C6.37072 3.66666 4.60724 4.5144 3.3877 5.863L3.15685 4.55378C3.06095 4.00988 2.54229 3.64672 1.99839 3.74262C1.4545 3.83852 1.09133 4.35718 1.18723 4.90108L1.88183 8.84032C1.92788 9.10152 2.07581 9.33366 2.29306 9.48579C2.56189 9.67406 2.91569 9.71572 3.21685 9.62032L6.97953 8.95686C7.5234 8.86099 7.8866 8.34232 7.79067 7.79839C7.6948 7.25452 7.17613 6.89132 6.63222 6.98726L4.77383 7.31492Z" fill="#E8E9EB"/>
</g>
<defs>
<clipPath id="clip0_62_1059">
<rect width="16" height="16" fill="white"/>
</clipPath>
</defs>
</svg>
