<svg width="24" height="24" viewBox="0 0 24 24" fill="none" xmlns="http://www.w3.org/2000/svg">
<path fill-rule="evenodd" clip-rule="evenodd" d="M7.32748 19.9543C3.95779 17.358 0 14.3087 0 9.02263C0 3.1871 6.60019 -0.951336 12 4.65886C17.3998 -0.951336 24 3.1871 24 9.02263C24 14.3087 20.0422 17.3581 16.6725 19.9543C16.3223 20.2242 15.9784 20.4891 15.646 20.7512C14.4 21.7334 13.2 22.6581 12 22.6581C10.8 22.6581 9.6 21.7334 8.35408 20.7512C8.02164 20.4891 7.67774 20.2242 7.32748 19.9543ZM14.2614 15.52C14.7798 15.52 15.2 15.0998 15.2 14.5814V10.059C15.2 9.54043 14.7796 9.12 14.261 9.12C13.8645 9.12 13.5108 9.369 13.377 9.74221L12.8549 11.1988C12.8186 11.3001 12.7646 11.3942 12.6953 11.4766C12.3324 11.9085 11.6677 11.9085 11.3047 11.4766C11.2355 11.3942 11.1814 11.3001 11.1451 11.1988L10.623 9.74221C10.4893 9.369 10.1355 9.12 9.73905 9.12C9.22044 9.12 8.80001 9.54043 8.80001 10.059V12.32V14.5814C8.80001 15.0998 9.22023 15.52 9.73858 15.52C10.1352 15.52 10.4891 15.2707 10.6225 14.8971L11.1444 13.4357C11.1812 13.3327 11.2362 13.2373 11.3069 13.1539C11.6698 12.7257 12.3303 12.7257 12.6931 13.1539C12.7638 13.2373 12.8188 13.3327 12.8556 13.4357L13.3776 14.8971C13.511 15.2707 13.8648 15.52 14.2614 15.52Z" fill="#313638"/>
</svg>
